<svg xmlns="http://www.w3.org/2000/svg" width="72" height="72" viewBox="0 0 72 72">
  <g>
    <path d="M60.1863,11.2163a9.1286,9.1286,0,0,0-8.9585-7.52,9.4713,9.4713,0,0,0-4.3212,1.03,14.9406,14.9406,0,0,0-21.8118,0,9.204,9.204,0,0,0-13.28,6.4882,7.188,7.188,0,0,0,1.1163,14.2489h3.767a1.6352,1.6352,0,1,0,0-3.27H13.0256a3.9166,3.9166,0,0,1-2.5678-6.7644,3.8374,3.8374,0,0,1,2.8041-1.0635,1.7461,1.7461,0,0,0,1.18-.4551,1.641,1.641,0,0,0,.503-1.1625,5.8552,5.8552,0,0,1,5.8606-5.7808,6.0823,6.0823,0,0,1,3.6377,1.1993,1.6419,1.6419,0,0,0,2.2851-.313,11.6641,11.6641,0,0,1,18.543,0,1.6409,1.6409,0,0,0,2.2836.313,5.9936,5.9936,0,0,1,3.59-1.1993,5.8656,5.8656,0,0,1,5.9116,5.7824A1.63,1.63,0,0,0,57.561,13.91a1.7981,1.7981,0,0,0,1.1785.4551,3.795,3.795,0,0,1,4.0306,3.799,3.8813,3.8813,0,0,1-1.0636,2.8009,4.0471,4.0471,0,0,1-3.0149,1.228H55.303a1.6352,1.6352,0,1,0,0,3.27h3.7655a7.1873,7.1873,0,0,0,1.1178-14.2473Z" fill="#161616"/>
    <path d="M59.193,33.7339c-.0193-.0369-.0315-.0765-.0511-.1134a2.2528,2.2528,0,0,0-.1459-.179,1.5834,1.5834,0,0,0-.2112-.2593,1.3983,1.3983,0,0,0-.9587-.52,1.7423,1.7423,0,0,0-.3479.0643,8.6124,8.6124,0,0,1-8.3966-8.5933V19a1.6352,1.6352,0,0,0-3.27,0v5.1339a11.8624,11.8624,0,0,0,6.6753,10.6311c-2.95.6407-7.98,1.2545-16.4866,1.2545-8.5363,0-13.5815-.6178-16.5123-1.24a11.8633,11.8633,0,0,0,6.7011-10.6451V19a1.6352,1.6352,0,1,0-3.27,0v5.1339a8.6242,8.6242,0,0,1-8.6136,8.6152c-.0132,0-.0242.007-.0372.0074-.0107.0006-.0175-.0066-.0283-.0058-.0387.0014-.0689.029-.107.0332a1.5924,1.5924,0,0,0-.6026.1868,1.5431,1.5431,0,0,0-.1845.1243,1.5945,1.5945,0,0,0-.3946.426c-.0251.0391-.0706.0585-.0926.1-.0208.0395-.0353.0809-.0559.12l-.0052.0112a26.16,26.16,0,1,0,46.4076.0067Zm-2.9446,22.77a22.8925,22.8925,0,0,1-41.2635-19.76C17.6118,37.9337,23.375,39.29,36,39.29c12.6218,0,18.3865-1.3558,21.015-2.5455A22.87,22.87,0,0,1,56.2484,56.5038Z" fill="#161616"/>
    <path d="M32.73,29.4782v-5.65a1.6352,1.6352,0,0,0-3.27,0v5.65a1.6352,1.6352,0,1,0,3.27,0Z" fill="#161616"/>
    <path d="M42.5408,29.4782v-5.65a1.6353,1.6353,0,0,0-3.27,0v5.65a1.6353,1.6353,0,0,0,3.27,0Z" fill="#161616"/>
    <path d="M27.0063,45.83a2.4528,2.4528,0,1,0-2.4528,2.4528A2.4565,2.4565,0,0,0,27.0063,45.83Z" fill="#161616"/>
    <path d="M47.4464,43.3775A2.4528,2.4528,0,1,0,49.8992,45.83,2.4575,2.4575,0,0,0,47.4464,43.3775Z" fill="#161616"/>
    <path d="M35.9967,52.0006c-6.75,0-10.7789,2.8872-10.7789,7.7226,0,4.19,1.4356,4.19,10.7773,4.19H36c9.3418,0,10.779,0,10.779-4.19C46.7789,54.8878,42.7484,52.0006,35.9967,52.0006Zm7.5022,8.406a52.7858,52.7858,0,0,1-7.5038.2364,52.6589,52.6589,0,0,1-7.4957-.2364c-.0112-.1884-.0112-.4535-.0112-.6834,0-3.6793,4.0832-4.4521,7.5085-4.4521,3.4269,0,7.5118.7728,7.5118,4.4521C43.5085,59.9531,43.5085,60.2182,43.4989,60.4066Z" fill="#161616"/>
  </g>
</svg>
