<svg xmlns="http://www.w3.org/2000/svg" viewBox="0 0 1600 800">
  <rect x="191.7882" y="346.6007" width="16.6818" height="453.3993" fill="#161616"/>
  <path d="M375.065,187.1586a18.3557,18.3557,0,0,1-.002,25.9563L213.0967,375.0773a18.35,18.35,0,0,1-25.955,0L25.1943,213.1149a18.3543,18.3543,0,0,1,.0012-25.9563L187.1638,25.1953a18.35,18.35,0,0,1,25.9537,0Z" fill="#ffdb00"/>
  <path d="M27.998,209.6264a13.1063,13.1063,0,0,1,0-18.5388L190.8547,28.241a13.1112,13.1112,0,0,1,18.5412,0l162.865,162.8466a13.1077,13.1077,0,0,1,0,18.5388L209.4034,372.4739a13.1106,13.1106,0,0,1-18.5412,0Z" fill="#161616"/>
  <path d="M32.7587,204.7652a6.377,6.377,0,0,1,0-9.02L195.6148,32.8992a6.3792,6.3792,0,0,1,9.02,0L367.5,195.7452a6.3774,6.3774,0,0,1,0,9.02L204.6423,367.6127a6.38,6.38,0,0,1-9.02,0Z" fill="#ffdb00"/>
  <g>
    <circle cx="200.1292" cy="200.1421" r="17.0695" fill="#161616"/>
    <path d="M295.8857,200.1421c0-13.4149-15.7644-25.0282-40.2463-32.0493,6.16-24.7116,3.9839-44.1708-7.632-50.8757-9.7008-5.627-23.7358-1.61-39.5353,11.2377-2.78,2.2591-5.5645,4.8179-8.3429,7.5166-2.7785-2.6987-5.563-5.2575-8.343-7.5166-15.8076-12.8478-29.8426-16.8322-39.5353-11.2377-11.6159,6.7049-13.7921,26.1641-7.6319,50.8757-24.482,7.0211-40.2464,18.6344-40.2464,32.0493S120.137,225.17,144.619,232.1914c-6.16,24.7117-3.984,44.1709,7.6319,50.8758a18.9338,18.9338,0,0,0,9.6521,2.472c8.4811,0,18.7431-4.6594,29.8832-13.71,2.78-2.2591,5.5645-4.8185,8.343-7.5171,2.7784,2.6986,5.5629,5.258,8.3429,7.5171,11.14,9.05,21.4021,13.71,29.8833,13.71a19.0142,19.0142,0,0,0,9.652-2.472c11.6159-6.7049,13.7921-26.1641,7.632-50.8758C280.1213,225.17,295.8857,213.5571,295.8857,200.1421ZM213.725,134.9194c9.5627-7.7738,18.1333-11.872,24.5165-11.872a11.0682,11.0682,0,0,1,5.6026,1.3742c7.5349,4.3549,9.1251,20.1326,3.7491,41.6a195.6384,195.6384,0,0,0-25.4693-3.9813,198.1511,198.1511,0,0,0-16.1833-20.1072C208.5361,139.4141,211.1346,137.0249,213.725,134.9194Zm13.0918,80.6238c-2.9589,5.1208-6.06,10.0505-9.26,14.7495-5.58.4178-11.3856.66-17.4278.66s-11.8476-.2419-17.4279-.66c-3.2-4.699-6.3009-9.6287-9.26-14.7495-3.0163-5.2255-5.7048-10.3661-8.13-15.4011,2.4252-5.0349,5.1137-10.1755,8.13-15.401,2.9588-5.1208,6.06-10.0506,9.26-14.75,5.58-.4177,11.3857-.66,17.4279-.66s11.8476.2419,17.4278.66c3.2,4.699,6.3009,9.6288,9.26,14.75,3.0162,5.2255,5.7047,10.3661,8.13,15.401C232.5215,205.1771,229.833,210.3177,226.8168,215.5432Zm12.5443-5.63c2.3856,5.6712,4.3575,11.1223,5.98,16.3321-5.3256,1.2-11.0349,2.2194-17.1427,2.9883,1.9866-3.1067,3.9407-6.2674,5.8227-9.5271C235.9139,216.429,237.6759,213.1647,239.3611,209.9132Zm-39.2319,42.4647c-3.771-4.0988-7.4993-8.563-11.14-13.3707,3.6546.1661,7.3595.2719,11.14.2719s7.4855-.1058,11.14-.2719C207.6284,243.8149,203.9,248.2791,200.1292,252.3779ZM172.06,229.2336c-6.1077-.7689-11.8176-1.7879-17.1432-2.9883,1.6227-5.21,3.5946-10.6609,5.98-16.3321,1.6853,3.2515,3.4473,6.5158,5.34,9.7933C168.119,222.9662,170.0736,226.1269,172.06,229.2336Zm-11.163-38.8625c-2.3856-5.6712-4.3575-11.1223-5.98-16.3321,5.3256-1.2,11.0355-2.2194,17.1432-2.9883-1.9866,3.1067-3.9412,6.2673-5.8231,9.527C164.3445,183.8552,162.5825,187.12,160.8972,190.3711Zm39.232-42.4647c3.7709,4.0988,7.4992,8.563,11.14,13.3707-3.6546-.1662-7.3595-.2719-11.14-.2719s-7.4856.1057-11.14.2719C192.63,156.4694,196.3582,152.0052,200.1292,147.9064Zm33.8921,32.6713c-1.882-3.26-3.8361-6.42-5.8227-9.527,6.1078.7689,11.8171,1.7879,17.1427,2.9883-1.6227,5.21-3.5946,10.6609-5.98,16.3321C237.6759,187.12,235.9139,183.8552,234.0213,180.5777Zm-77.6071-56.1561a11.0682,11.0682,0,0,1,5.6026-1.3742c6.3832,0,14.9538,4.0982,24.5165,11.872,2.59,2.1055,5.1894,4.4947,7.7849,7.0134A198.206,198.206,0,0,0,178.135,162.04a195.6319,195.6319,0,0,0-25.47,3.9813C147.2891,144.5542,148.8794,128.7765,156.4142,124.4216Zm-43.7149,75.7205c0-8.7,12.8686-17.9675,34.1487-24.0453a195.6009,195.6009,0,0,0,9.2867,24.0453,195.6021,195.6021,0,0,0-9.2867,24.0454C125.5679,218.11,112.6993,208.8418,112.6993,200.1421Zm73.834,65.2228c-12.7421,10.3514-23.7359,14.1732-30.1191,10.4978-7.5348-4.3549-9.1251-20.1326-3.7491-41.6a195.6394,195.6394,0,0,0,25.47,3.9814,198.2034,198.2034,0,0,0,16.1827,20.1072C191.7227,260.87,189.1237,263.2594,186.5333,265.3649Zm57.3108,10.4978c-6.3751,3.6836-17.377-.1383-30.1191-10.4978-2.59-2.1055-5.1894-4.4947-7.7849-7.0134a198.3444,198.3444,0,0,0,16.1833-20.1072,195.6325,195.6325,0,0,0,25.47-3.9814C252.9692,255.73,251.379,271.5078,243.8441,275.8627Zm9.5662-51.6752a195.586,195.586,0,0,0-9.2867-24.0454,195.5848,195.5848,0,0,0,9.2867-24.0453c21.28,6.0778,34.1488,15.3456,34.1488,24.0453S274.6905,218.11,253.41,224.1875Z" fill="#161616"/>
  </g>
  <path d="M67.256,423.549a17.716,17.716,0,0,1,17.716-17.7173H315.2873a17.7153,17.7153,0,0,1,17.715,17.7173V600.7143a17.7152,17.7152,0,0,1-17.715,17.7162H84.972a17.716,17.716,0,0,1-17.716-17.7162V423.549Z" fill="#ffdb00"/>
  <path d="M71.1537,423.549a13.8193,13.8193,0,0,1,13.8183-13.82H315.2875a13.82,13.82,0,0,1,13.8187,13.82V600.7144a13.8187,13.8187,0,0,1-13.8187,13.8187H84.972a13.8181,13.8181,0,0,1-13.8183-13.8187V423.549Z" fill="#161616"/>
  <path d="M77.1767,423.549a7.7952,7.7952,0,0,1,7.7953-7.7954H315.2879a7.7952,7.7952,0,0,1,7.795,7.7954V600.7136a7.7961,7.7961,0,0,1-7.795,7.7962H84.972a7.7962,7.7962,0,0,1-7.7953-7.7962V423.549Z" fill="#ffdb00"/>
  <g>
    <path d="M157.63,447.4055H139.5791v6.6H150.13v6.8007H139.5791v14.751h-7V440.5549H157.63Z"/>
    <path d="M187.0811,475.5568H179.38l-2.75-7.8008h-12.8l-2.75,7.8008h-7.5005L166.98,440.5549H173.78Zm-12.8506-14.4511-2.251-6.3506c-.6992-2.05-1.3994-4.1494-1.75-5.45-.35,1.3008-1.05,3.4-1.75,5.45l-2.25,6.3506Z"/>
    <path d="M211.1816,447.4553H201.1309v28.1015h-7V447.4553H184.08v-6.9h27.1015Z"/>
    <path d="M241.6826,475.5568h-7.7l-2.75-7.8008H218.4316l-2.75,7.8008h-7.5009l13.4013-35.0019h6.8ZM228.832,461.1057l-2.25-6.3506c-.7-2.05-1.4-4.1494-1.75-5.45-.3506,1.3008-1.05,3.4-1.75,5.45l-2.25,6.3506Z"/>
    <path d="M270.2324,475.5568H245.6807V440.5549h7.0009v28.1015h17.5508Z"/>
    <path d="M146.9072,530.5568H121.856V495.5549h24.3012v6.8506H128.856v6.05h10.0507v6.8007H128.856v8.45h18.0512Z"/>
    <path d="M180.207,530.5568h-8.0508l-6.25-12.6006h-7.0507v12.6006h-7V495.5549h16.3007c6.6006,0,12.0508,3.65,12.0508,11.1006,0,5.25-2.25,8.5507-6.7,10.3007Zm-7.2-23.751c0-3.15-1.9-4.4511-5-4.4511h-9.1508v9.001h9.1508C171.2568,511.3557,173.0068,509.8557,173.0068,506.8058Z"/>
    <path d="M213.4062,530.5568h-8.05l-6.2509-12.6006h-7.05v12.6006h-7.001V495.5549h16.3017c6.6,0,12.05,3.65,12.05,11.1006,0,5.25-2.25,8.5507-6.7,10.3007Zm-7.2-23.751c0-3.15-1.9-4.4511-5-4.4511h-9.15v9.001h9.15C204.4561,511.3557,206.2061,509.8557,206.2061,506.8058Z"/>
    <path d="M247.1562,513.006c0,11.3008-6.3505,18.1006-15.4511,18.1006-9.15,0-15.4014-6.7-15.4014-18.0009s6.3506-18.1006,15.501-18.1006C240.9053,495.0051,247.1562,501.7053,247.1562,513.006Zm-7.2011.1c0-7.1006-3.3994-11.15-8.3-11.15s-8.15,3.95-8.15,11.0507,3.3994,11.15,8.3,11.15S239.9551,520.2062,239.9551,513.1057Z"/>
    <path d="M280.0557,530.5568h-8.05l-6.251-12.6006h-7.05v12.6006h-7.001V495.5549h16.3008c6.6006,0,12.0508,3.65,12.0508,11.1006,0,5.25-2.25,8.5507-6.7,10.3007Zm-7.2-23.751c0-3.15-1.9-4.4511-5-4.4511h-9.15v9.001h9.15C271.1055,511.3557,272.8555,509.8557,272.8555,506.8058Z"/>
    <path d="M150.5317,585.5568h-7.7l-2.75-7.8008H127.2808l-2.7505,7.8008H117.03l13.4009-35.0019h6.8Zm-12.8505-14.4511-2.25-6.3506c-.7-2.05-1.4-4.1494-1.75-5.45-.35,1.3008-1.05,3.4-1.75,5.45l-2.25,6.3506Z"/>
    <path d="M182.8818,585.5568h-7V570.8557H161.53v14.7011h-7V550.5549h7v13.4h14.3515v-13.4h7Z"/>
    <path d="M214.4316,585.5568H189.38V550.5549h24.3017v6.8506H196.3809v6.05h10.0507v6.8007H196.3809v8.45h18.0507Z"/>
    <path d="M250.3818,585.5568h-7.7l-2.75-7.8008H227.1309l-2.75,7.8008H216.88l13.4013-35.0019h6.8Zm-12.8506-14.4511-2.25-6.3506c-.7-2.05-1.4-4.1494-1.75-5.45-.3505,1.3008-1.05,3.4-1.75,5.45l-2.25,6.3506Z"/>
    <path d="M282.7314,568.0558c0,12.3008-8.9,17.501-17.9,17.501H254.38V550.5549h10.9512C275.3311,550.5549,282.7314,555.2551,282.7314,568.0558Zm-7.2,0c0-7.15-3.05-10.7011-10.45-10.7011h-3.7V578.756h3.45C272.1816,578.756,275.5312,574.4562,275.5312,568.0558Z"/>
  </g>
</svg>
